<?xml version="1.0" encoding="UTF-8"?><svg xmlns="http://www.w3.org/2000/svg" xmlns:xlink="http://www.w3.org/1999/xlink" height="206.8" preserveAspectRatio="xMidYMid meet" version="1.1" viewBox="123.0 109.4 179.3 206.8" width="179.3" zoomAndPan="magnify">
 <g id="surface1">
  <g id="change1_1"><path d="m299.91 213.07c-1.14-16.69-8.09-36.42-24.03-46.67-7.8-5.01-16.6-8.06-25.92-10.37 0 0-9.55-3.14-37.36-0.11-27.8-3.03-37.36 0.11-37.36 0.11-9.32 2.31-18.12 5.36-25.92 10.37-15.94 10.25-22.88 29.98-24.03 46.67-2.33 33.88 6.43 66.42 32.48 91.1 10.09 9.56 16.4 12.01 30.79 10.83 11.42-0.94 17.14-7.07 24.04-7.82 6.9 0.75 12.62 6.88 24.04 7.82 14.39 1.18 20.7-1.27 30.79-10.83 26.05-24.68 34.8-57.22 32.48-91.1" fill="#ec3152"/></g>
  <g id="change2_1"><path d="m226.41 127.04s-23.97 13.86-23.97 51.69c0 0-0.37 3.75 6.37 3.75 0 0 3.37-30.71 27.34-46.07 0 0 1.87-9.37-9.74-9.37" fill="#804635"/></g>
  <g id="change3_1"><path d="m142.66 120.61c0.52 4.12 1.12 8.16 2.46 12.12 4.37 12.93 14.7 22.21 27.76 25.91 5.44 1.54 10.82 2.51 16.58 3.34 3.23 0.46 6.16 0.53 9.27 1.4 2.47 0.69 5.73 2.62 8.23 2.53 0.28-0.01 1.13 0.28 1.48 0.35-0.84-5.85-4.28-11.2-5.78-16.78-1.91-7.08-4.12-13.57-7.77-20.09-3.4-6.08-10.23-10.16-15.99-13.6-4.8-2.88-9.04-3.76-14.55-4.56-3.94-0.57-7.84-0.34-11.76-0.47-2.1-0.08-9.89-1.4-10.7-0.55-1.46 1.58 0.44 7.74 0.67 9.62 0.04 0.26 0.07 0.52 0.1 0.78" fill="#65a931"/></g>
  <path d="m2069.6 2601.7c-94.1 133.3-255.2 198.3-377.9 296.7-41.8 35.6-79.3 79.7-114 122.2" fill="none" stroke="#4d8024" stroke-linecap="round" stroke-linejoin="round" stroke-miterlimit="10" stroke-width="28.305" transform="matrix(.1 0 0 -.1 0 425.2)"/>
  <path d="m1870.9 2408.5s153.7 75.1 427 0" fill="none" stroke="#cb2a45" stroke-linecap="round" stroke-linejoin="round" stroke-miterlimit="10" stroke-width="50" transform="matrix(.1 0 0 -.1 0 425.2)"/>
 </g>
</svg>